<?xml version="1.0" encoding="iso-8859-1"?>
<!-- Generator: Adobe Illustrator 19.0.0, SVG Export Plug-In . SVG Version: 6.00 Build 0)  -->
<svg xmlns="http://www.w3.org/2000/svg" xmlns:xlink="http://www.w3.org/1999/xlink" version="1.1" id="Capa_1" x="0px" y="0px" viewBox="0 0 511.999 511.999" style="enable-background:new 0 0 511.999 511.999;" xml:space="preserve" width="512px" height="512px">
<g>
	<g>
		<path d="M110.661,134.225v80.245h14.854c3.556,39.505,25.578,73.766,57.353,94.055l-22.353,80.897    c-0.472-0.011-0.94-0.036-1.415-0.036c-33.805,0-61.307,27.502-61.307,61.307s27.504,61.306,61.309,61.306    s61.307-27.502,61.307-61.307c0-1.98-0.103-3.937-0.287-5.87h128.415l17.83,64.527l28.916-7.99L342,308.524    c31.775-20.288,53.797-54.55,57.353-94.054h14.854v-80.245H110.661z M159.102,481.999c-17.263,0-31.307-14.044-31.307-31.307    s14.044-31.307,31.307-31.307s31.307,14.044,31.307,31.307S176.364,481.999,159.102,481.999z M208.773,414.822    c-5.128-7.081-11.727-13.022-19.349-17.379l20.939-75.782c12.429,4.158,25.721,6.416,39.531,6.416h25.08    c13.81,0,27.102-2.258,39.531-6.416l25.742,93.161H208.773z M274.974,298.076h-25.08c-48.505,0-88.627-36.584-94.226-83.606    h213.533C363.602,261.492,323.479,298.076,274.974,298.076z M384.206,184.47H140.661v-20.245h243.546V184.47z" fill="#FFFFFF"/>
	</g>
</g>
<g>
	<g>
		<path d="M197.38,34.316c0-6.14,0.833-8.632,2.093-12.404c1.622-4.854,3.64-10.894,3.64-21.912h-30    c0,6.14-0.833,8.632-2.093,12.404c-1.622,4.854-3.64,10.894-3.64,21.912c0,11.02,2.018,17.06,3.64,21.913    c1.261,3.772,2.093,6.265,2.093,12.404c0,6.139-0.833,8.633-2.093,12.406c-1.622,4.853-3.64,10.893-3.64,21.912h30    c0-6.14,0.833-8.633,2.093-12.406c1.622-4.853,3.64-10.893,3.64-21.912c0-11.019-2.018-17.059-3.64-21.911    C198.213,42.949,197.38,40.456,197.38,34.316z" fill="#FFFFFF"/>
	</g>
</g>
<g>
	<g>
		<path d="M351.755,34.316c0-6.14,0.833-8.632,2.093-12.404c1.622-4.854,3.64-10.894,3.64-21.912h-30    c0,6.14-0.833,8.632-2.093,12.404c-1.622,4.854-3.64,10.894-3.64,21.912c0,11.02,2.018,17.06,3.64,21.913    c1.261,3.772,2.093,6.265,2.093,12.404c0,6.139-0.833,8.633-2.093,12.406c-1.622,4.853-3.64,10.893-3.64,21.912h30    c0-6.14,0.833-8.633,2.093-12.406c1.622-4.853,3.64-10.893,3.64-21.912c0-11.019-2.018-17.059-3.64-21.911    C352.587,42.949,351.755,40.456,351.755,34.316z" fill="#FFFFFF"/>
	</g>
</g>
<g>
	<g>
		<path d="M276.66,46.721c-1.261-3.772-2.094-6.266-2.094-12.405c0-6.139,0.833-8.632,2.093-12.404    c1.622-4.854,3.64-10.894,3.64-21.912h-30c0,6.14-0.833,8.632-2.093,12.404c-1.622,4.854-3.64,10.894-3.64,21.912    c0,11.02,2.018,17.06,3.64,21.913c1.26,3.772,2.093,6.265,2.093,12.404c0,6.139-0.833,8.633-2.094,12.405    c-1.621,4.854-3.639,10.894-3.639,21.913h30c0-6.14,0.833-8.633,2.094-12.405c1.622-4.854,3.64-10.894,3.64-21.913    C280.3,57.614,278.282,51.574,276.66,46.721z" fill="#FFFFFF"/>
	</g>
</g>
<g>
</g>
<g>
</g>
<g>
</g>
<g>
</g>
<g>
</g>
<g>
</g>
<g>
</g>
<g>
</g>
<g>
</g>
<g>
</g>
<g>
</g>
<g>
</g>
<g>
</g>
<g>
</g>
<g>
</g>
</svg>
