<?xml version="1.0" encoding="iso-8859-1"?>
<!-- Generator: Adobe Illustrator 19.0.0, SVG Export Plug-In . SVG Version: 6.00 Build 0)  -->
<svg xmlns="http://www.w3.org/2000/svg" xmlns:xlink="http://www.w3.org/1999/xlink" version="1.1" id="Capa_1" x="0px" y="0px" viewBox="0 0 512 512" style="enable-background:new 0 0 512 512;" xml:space="preserve" width="512px" height="512px">
<g>
	<g>
		<path d="M420.495,34.648C402.765,16.92,379.19,7.587,354.133,8.324h-0.001c0,0-0.001,0-0.002,0c-0.002,0-0.004,0-0.006,0    c-22.991,0.693-44.619,10.041-60.902,26.324c-3.905,3.905-3.905,10.237,0,14.143L324.43,80H196.863L185.008,8.367    C184.209,3.54,180.035,0,175.142,0h-100c-5.523,0-10,4.477-10,10s4.477,10,10,10h91.519l9.929,60h-61.448    c-2.82,0-5.509,1.191-7.404,3.279c-1.895,2.088-2.821,4.879-2.549,7.686c1.516,15.629,34.939,360.35,38.203,394.018    C144.93,500.385,157.762,512,173.243,512h143.8c15.48,0,28.313-11.615,29.853-27.046c0.72-7.43,32.764-337.92,33.808-348.688    l25.647,25.654c3.903,3.903,10.233,3.908,14.141,0.003c16.286-16.275,25.635-37.906,26.326-60.908c0-0.001,0-0.002,0-0.003v-0.001    v-0.001C447.562,76.309,437.967,52.122,420.495,34.648z M314.936,42.221c8.803-6.601,18.997-10.997,29.826-12.884l1.333,44.043    L314.936,42.221z M126.159,100h53.742l20.895,126.264c-0.637,0.537-1.268,1.088-1.891,1.656    c-14.347,13.085-32.174,13.085-46.519,0.004c-4.588-4.189-9.546-7.532-14.793-10.007L126.159,100z M326.992,482.998    c-0.513,5.132-4.789,9.002-9.949,9.002h-143.8c-5.16,0-9.437-3.871-9.946-8.974L162.227,472c20.538,0,138.669,0,165.83,0    L326.992,482.998z M329.995,452h-20.064l9.108-96.5c0.519-5.498-3.518-10.376-9.017-10.895    c-5.503-0.524-10.377,3.517-10.896,9.016L289.841,452H160.288l-20.193-208.26c10.722,9.316,23.131,13.988,35.547,13.988    c12.875,0,25.752-5.01,36.741-15.031c1.585-1.447,3.213-2.732,4.883-3.852c13.435-9.112,29-7.671,41.639,3.853    c21.975,20.04,51.502,20.039,73.479-0.002c5.733-5.231,12.196-8.443,18.824-9.452L329.995,452z M362.849,113.184    c-0.005,0.043-0.009,0.087-0.013,0.13l-9.662,99.645c-12.253,0.598-24.137,5.716-34.27,14.962    c-14.348,13.085-32.176,13.085-46.523,0c-15.695-14.312-35.083-18.551-53.079-12.326L200.172,100c6.376,0,157.607,0,163.955,0    L362.849,113.184z M366.148,74.852l-1.396-46.123c12.409,1.372,24.056,5.992,34.024,13.495L366.148,74.852z M412.924,140.207    l-29.72-29.728l0.134-1.384l42.468,1.286C423.92,121.214,419.524,131.408,412.924,140.207z M385.094,89.138    c-0.116-1.339-0.502-2.635-1.13-3.818l28.953-28.953c7.505,9.969,12.126,21.621,13.497,34.023L385.094,89.138z" fill="#FFFFFF"/>
	</g>
</g>
<g>
	<g>
		<path d="M315.142,306c-5.52,0-10,4.48-10,10c0,5.52,4.48,10,10,10c5.52,0,10-4.48,10-10C325.142,310.48,320.662,306,315.142,306z" fill="#FFFFFF"/>
	</g>
</g>
<g>
</g>
<g>
</g>
<g>
</g>
<g>
</g>
<g>
</g>
<g>
</g>
<g>
</g>
<g>
</g>
<g>
</g>
<g>
</g>
<g>
</g>
<g>
</g>
<g>
</g>
<g>
</g>
<g>
</g>
</svg>
