<svg id="svg" version="1.1" width="400" height="399.19839679358716" viewBox="0 0 400 399.19839679358716" xmlns="http://www.w3.org/2000/svg" xmlns:xlink="http://www.w3.org/1999/xlink" ><g id="svgg"><path id="path0" d="M161.078 104.388 C 160.858 104.462,159.601 104.843,158.283 105.236 C 142.522 109.932,133.043 127.540,131.339 155.289 C 130.771 164.540,130.787 164.497,129.070 161.114 C 120.502 144.237,112.471 159.588,118.646 181.038 C 121.262 190.125,128.261 199.601,132.356 199.601 C 133.075 199.601,133.276 200.075,135.138 206.188 C 136.577 210.911,139.069 217.749,140.556 221.054 C 140.975 221.984,141.317 222.847,141.317 222.971 C 141.317 223.094,142.313 225.283,143.530 227.834 L 145.743 232.472 146.104 238.492 C 146.302 241.802,146.591 248.404,146.745 253.162 L 147.026 261.813 145.395 262.252 C 140.991 263.438,140.585 276.169,144.351 295.010 C 145.500 300.761,148.987 315.237,150.072 318.762 C 150.477 320.080,151.209 322.595,151.697 324.351 C 152.521 327.315,155.147 336.190,156.924 342.016 C 157.342 343.388,158.024 345.634,158.438 347.006 C 159.552 350.693,170.822 384.498,171.248 385.429 C 171.449 385.868,172.172 387.934,172.854 390.020 C 173.537 392.106,174.251 394.172,174.442 394.611 C 174.632 395.050,175.096 396.262,175.472 397.305 L 176.156 399.202 178.274 399.202 C 180.915 399.202,180.843 399.338,181.298 393.485 C 181.816 386.831,182.325 380.744,182.841 375.050 C 183.079 372.415,183.436 368.373,183.635 366.068 C 184.779 352.777,185.314 346.768,185.863 341.050 C 186.132 338.253,186.110 338.152,184.886 336.667 C 184.197 335.831,183.629 334.874,183.624 334.540 C 183.600 332.887,182.180 331.971,179.175 331.666 C 171.863 330.925,167.907 330.106,167.752 329.301 C 167.530 328.150,172.446 319.475,177.084 312.834 C 178.487 310.825,179.636 308.889,179.638 308.532 C 179.655 304.601,212.340 304.506,213.846 308.432 C 213.990 308.805,214.384 308.967,214.851 308.845 C 216.281 308.471,219.318 312.433,224.691 321.676 C 228.396 328.049,228.620 327.631,220.359 329.736 C 219.371 329.988,218.011 330.361,217.337 330.566 C 216.663 330.771,215.495 330.941,214.742 330.944 C 213.989 330.948,213.193 331.082,212.972 331.244 C 212.096 331.884,210.622 337.684,210.899 339.400 C 211.149 340.947,211.898 345.464,212.375 348.303 C 212.560 349.401,212.919 351.557,213.174 353.094 C 213.428 354.631,213.787 356.786,213.972 357.884 C 214.157 358.982,214.516 361.138,214.770 362.675 C 215.025 364.212,215.384 366.367,215.569 367.465 C 215.753 368.563,216.113 370.719,216.367 372.255 C 216.622 373.792,216.981 375.948,217.166 377.046 C 217.350 378.144,217.710 380.299,217.964 381.836 C 218.219 383.373,218.578 385.529,218.762 386.627 C 218.947 387.725,219.274 389.790,219.489 391.218 C 219.869 393.742,220.635 396.277,220.924 395.964 C 221.002 395.878,221.636 394.102,222.331 392.016 C 223.027 389.930,223.739 387.864,223.914 387.425 C 224.255 386.569,224.337 386.328,226.777 379.042 C 227.659 376.407,228.545 373.892,228.745 373.453 C 229.077 372.725,232.189 363.340,234.901 354.890 C 238.280 344.363,239.313 341.096,240.518 337.126 C 246.020 319.004,250.978 299.354,252.856 288.224 C 255.357 273.399,254.392 262.964,250.457 262.272 L 249.301 262.068 249.196 250.446 L 249.090 238.824 250.615 236.278 C 254.898 229.128,260.859 214.893,264.261 203.693 C 264.986 201.305,265.714 199.601,266.010 199.601 C 268.844 199.601,274.552 193.663,277.141 188.024 C 282.888 175.503,283.856 162.521,279.560 155.589 C 277.437 152.163,271.098 155.999,267.660 162.789 C 266.163 165.745,265.994 165.162,265.677 155.941 C 265.136 140.185,263.346 132.793,258.865 127.810 C 255.106 123.629,252.252 123.166,245.509 125.642 C 220.475 134.837,184.701 126.262,165.639 106.499 C 163.532 104.314,162.595 103.881,161.078 104.388 " stroke="none" fill="#fbdbbb" fill-rule="evenodd"></path><path id="path1" d="M-0.000 122.560 L -0.000 245.120 3.792 241.328 C 5.878 239.242,7.585 237.442,7.585 237.329 C 7.585 237.063,37.457 207.186,37.724 207.186 C 37.993 207.186,107.784 137.385,107.784 137.116 C 107.784 137.001,110.293 134.406,113.359 131.351 L 118.934 125.797 119.091 116.491 C 119.177 111.373,119.460 106.198,119.720 104.990 C 119.980 103.782,120.295 102.209,120.420 101.493 C 120.545 100.778,120.807 100.093,121.002 99.973 C 121.197 99.852,121.357 99.312,121.357 98.773 C 121.357 98.234,121.522 97.482,121.723 97.100 C 121.924 96.719,122.354 95.778,122.679 95.010 C 124.549 90.582,127.499 85.634,129.341 83.832 C 129.454 83.723,130.066 82.935,130.702 82.082 C 132.004 80.337,135.760 76.657,136.246 76.651 C 136.420 76.649,136.998 76.212,137.530 75.680 C 138.062 75.148,138.862 74.597,139.309 74.455 C 139.755 74.314,140.120 74.030,140.120 73.825 C 140.120 73.621,140.479 73.453,140.918 73.453 C 141.357 73.453,141.717 73.307,141.717 73.128 C 141.717 72.663,144.841 71.058,145.746 71.058 C 146.165 71.058,146.507 70.878,146.507 70.659 C 146.507 70.439,147.046 70.259,147.705 70.259 C 148.363 70.259,148.902 70.080,148.902 69.860 C 148.902 69.641,149.621 69.461,150.499 69.461 C 151.377 69.461,152.096 69.281,152.096 69.062 C 152.096 68.842,152.368 68.663,152.700 68.663 C 153.554 68.663,154.890 67.848,156.137 66.567 C 156.725 65.963,157.454 65.469,157.757 65.469 C 158.059 65.469,158.566 65.110,158.882 64.671 C 159.199 64.232,159.695 63.872,159.985 63.872 C 160.275 63.872,160.898 63.513,161.369 63.074 C 161.841 62.635,162.462 62.275,162.750 62.275 C 163.038 62.275,163.273 62.096,163.273 61.876 C 163.273 61.657,163.633 61.477,164.072 61.477 C 164.511 61.477,164.870 61.297,164.870 61.078 C 164.870 60.858,165.230 60.679,165.669 60.679 C 166.108 60.679,166.467 60.499,166.467 60.279 C 166.467 60.060,166.816 59.880,167.242 59.880 C 167.668 59.880,168.128 59.701,168.263 59.481 C 168.399 59.261,168.949 59.082,169.485 59.082 C 170.021 59.082,170.459 58.902,170.459 58.683 C 170.459 58.463,170.998 58.283,171.657 58.283 C 172.315 58.283,172.854 58.104,172.854 57.884 C 172.854 57.665,173.393 57.485,174.052 57.485 C 174.711 57.485,175.250 57.305,175.250 57.086 C 175.250 56.866,175.968 56.687,176.846 56.687 C 177.725 56.687,178.443 56.507,178.443 56.287 C 178.443 56.068,179.162 55.888,180.040 55.888 C 180.918 55.888,181.637 55.709,181.637 55.489 C 181.637 55.261,182.834 55.090,184.431 55.090 C 186.028 55.090,187.226 54.919,187.226 54.691 C 187.226 54.471,188.035 54.291,189.024 54.291 L 190.823 54.291 199.004 46.110 C 203.504 41.611,207.186 37.837,207.186 37.726 C 207.186 37.458,237.062 7.585,237.329 7.585 C 237.442 7.585,239.242 5.878,241.328 3.792 L 245.120 -0.000 122.560 -0.000 L 0.000 0.000 -0.000 122.560 M251.597 124.028 C 251.981 124.128,252.610 124.128,252.994 124.028 C 253.378 123.927,253.064 123.845,252.295 123.845 C 251.527 123.845,251.213 123.927,251.597 124.028 M223.653 129.616 C 224.037 129.717,224.666 129.717,225.050 129.616 C 225.434 129.516,225.120 129.434,224.351 129.434 C 223.583 129.434,223.268 129.516,223.653 129.616 M131.430 150.499 C 131.430 151.267,131.512 151.582,131.613 151.198 C 131.713 150.813,131.713 150.185,131.613 149.800 C 131.512 149.416,131.430 149.731,131.430 150.499 M119.463 153.943 C 112.515 161.034,115.744 183.974,125.266 195.159 C 127.477 197.756,130.411 199.977,131.649 199.990 C 132.159 199.996,132.658 200.307,132.783 200.699 C 132.906 201.083,133.149 201.756,133.324 202.196 C 133.499 202.635,133.866 203.802,134.140 204.790 C 135.241 208.762,136.475 212.304,137.372 214.066 C 137.566 214.448,137.725 215.111,137.725 215.540 C 137.725 215.969,137.904 216.431,138.124 216.567 C 138.343 216.703,138.523 217.162,138.523 217.588 C 138.523 218.015,138.703 218.363,138.922 218.363 C 139.142 218.363,139.321 218.802,139.321 219.338 C 139.321 219.874,139.501 220.423,139.721 220.559 C 139.940 220.695,140.120 221.154,140.120 221.580 C 140.120 222.007,140.299 222.355,140.519 222.355 C 140.739 222.355,140.918 222.627,140.918 222.960 C 140.918 223.292,141.079 223.876,141.276 224.257 C 142.020 225.695,144.845 231.769,145.126 232.535 C 145.400 233.280,145.619 237.255,146.342 254.589 L 146.629 261.473 145.379 261.723 C 144.089 261.981,143.005 262.898,143.456 263.350 C 143.597 263.491,143.713 263.403,143.713 263.156 C 143.713 262.908,144.458 262.505,145.369 262.259 L 147.026 261.813 146.745 253.162 C 146.591 248.404,146.302 241.802,146.104 238.492 L 145.743 232.472 143.530 227.834 C 142.313 225.283,141.317 223.094,141.317 222.971 C 141.317 222.847,140.975 221.984,140.556 221.054 C 139.069 217.749,136.577 210.911,135.138 206.188 C 133.276 200.075,133.075 199.601,132.356 199.601 C 129.333 199.601,124.138 193.898,120.976 187.109 C 114.847 173.946,114.928 156.057,121.128 153.714 C 121.887 153.427,121.887 153.421,121.128 153.226 C 120.657 153.105,120.013 153.382,119.463 153.943 M265.593 155.090 C 265.595 156.407,265.670 156.898,265.758 156.180 C 265.847 155.463,265.845 154.385,265.754 153.785 C 265.663 153.185,265.591 153.772,265.593 155.090 M131.047 156.487 C 131.047 157.475,131.125 157.879,131.220 157.385 C 131.315 156.891,131.315 156.083,131.220 155.589 C 131.125 155.095,131.047 155.499,131.047 156.487 M281.695 161.277 C 282.011 162.999,282.238 163.324,282.229 162.043 C 282.226 161.512,282.047 160.808,281.831 160.479 C 281.555 160.058,281.514 160.294,281.695 161.277 M281.891 171.657 C 281.855 172.206,281.733 173.104,281.620 173.653 L 281.415 174.651 281.843 173.668 C 282.079 173.128,282.201 172.229,282.114 171.672 L 281.956 170.659 281.891 171.657 M281.084 176.514 C 281.059 176.881,280.935 177.509,280.808 177.911 C 280.590 178.605,280.602 178.606,281.035 177.932 C 281.286 177.540,281.410 176.912,281.311 176.534 C 281.148 175.916,281.126 175.914,281.084 176.514 M274.599 192.515 C 274.336 193.009,273.033 194.581,271.703 196.008 L 269.286 198.603 271.686 196.302 C 273.821 194.256,275.848 191.617,275.286 191.617 C 275.172 191.617,274.863 192.021,274.599 192.515 M257.086 222.839 C 257.086 222.958,256.814 223.707,256.482 224.502 C 256.149 225.297,255.967 225.948,256.077 225.948 C 256.393 225.948,257.518 223.054,257.291 222.826 C 257.178 222.714,257.086 222.719,257.086 222.839 M249.738 237.724 C 249.179 238.576,249.101 239.813,249.202 246.207 L 249.320 253.693 249.411 246.194 C 249.484 240.071,249.619 238.514,250.146 237.711 C 250.500 237.169,250.701 236.727,250.591 236.727 C 250.481 236.727,250.097 237.175,249.738 237.724 M249.263 261.567 C 249.318 261.847,249.799 262.137,250.331 262.212 C 250.862 262.287,251.657 262.646,252.096 263.010 C 252.888 263.667,252.888 263.665,252.134 262.774 C 251.715 262.280,250.967 261.876,250.470 261.876 C 249.974 261.876,249.476 261.692,249.365 261.467 C 249.253 261.242,249.207 261.287,249.263 261.567 M141.809 268.263 C 141.809 269.032,141.891 269.346,141.992 268.962 C 142.092 268.578,142.092 267.949,141.992 267.565 C 141.891 267.181,141.809 267.495,141.809 268.263 M141.831 280.040 C 141.834 281.138,141.911 281.539,142.003 280.933 C 142.095 280.326,142.092 279.428,141.998 278.937 C 141.903 278.446,141.828 278.942,141.831 280.040 M253.993 280.040 C 253.997 280.918,254.079 281.230,254.175 280.734 C 254.270 280.237,254.266 279.519,254.166 279.137 C 254.067 278.755,253.988 279.162,253.993 280.040 M142.608 286.627 C 142.608 287.395,142.690 287.710,142.790 287.325 C 142.891 286.941,142.891 286.312,142.790 285.928 C 142.690 285.544,142.608 285.858,142.608 286.627 M188.423 305.831 C 182.145 306.382,179.644 307.151,179.638 308.532 C 179.636 308.889,178.487 310.825,177.084 312.834 C 172.446 319.475,167.530 328.150,167.752 329.301 C 167.907 330.106,171.863 330.925,179.175 331.666 C 182.180 331.971,183.600 332.887,183.624 334.540 C 183.629 334.874,184.197 335.831,184.886 336.667 C 186.110 338.152,186.132 338.253,185.863 341.050 C 185.314 346.768,184.779 352.777,183.635 366.068 C 183.436 368.373,183.079 372.415,182.841 375.050 C 182.325 380.744,181.816 386.831,181.298 393.485 C 181.090 396.160,180.801 398.540,180.656 398.775 C 180.470 399.075,186.106 399.202,199.728 399.202 L 219.065 399.202 219.590 397.904 C 219.878 397.191,220.266 396.502,220.452 396.374 C 220.638 396.246,220.585 395.617,220.334 394.977 C 220.084 394.336,219.704 392.645,219.489 391.218 C 219.274 389.790,218.947 387.725,218.762 386.627 C 218.578 385.529,218.219 383.373,217.964 381.836 C 217.710 380.299,217.350 378.144,217.166 377.046 C 216.981 375.948,216.622 373.792,216.367 372.255 C 216.113 370.719,215.753 368.563,215.569 367.465 C 215.384 366.367,215.025 364.212,214.770 362.675 C 214.516 361.138,214.157 358.982,213.972 357.884 C 213.787 356.786,213.428 354.631,213.174 353.094 C 212.919 351.557,212.560 349.401,212.375 348.303 C 211.898 345.464,211.149 340.947,210.899 339.400 C 210.622 337.684,212.096 331.884,212.972 331.244 C 213.193 331.082,213.989 330.948,214.742 330.944 C 215.495 330.941,216.663 330.771,217.337 330.566 C 218.011 330.361,219.371 329.988,220.359 329.736 C 228.620 327.631,228.396 328.049,224.691 321.676 C 219.318 312.433,216.281 308.471,214.851 308.845 C 214.384 308.967,213.990 308.805,213.846 308.432 C 213.022 306.283,199.291 304.879,188.423 305.831 M224.841 384.531 C 224.161 386.411,224.255 386.920,224.976 385.260 C 225.302 384.508,225.515 383.732,225.450 383.535 C 225.384 383.338,225.110 383.786,224.841 384.531 " stroke="none" fill="#4c8cac" fill-rule="evenodd"></path><path id="path2" d="M190.020 54.968 C 176.338 56.435,165.258 60.631,155.409 68.076 C 154.342 68.882,152.671 69.601,150.818 70.052 C 136.946 73.422,124.945 86.694,121.030 102.994 C 119.187 110.666,119.142 129.641,120.918 150.295 L 121.158 153.086 122.996 153.957 C 125.234 155.017,127.386 157.436,129.105 160.822 L 130.394 163.361 130.876 156.431 C 132.899 127.377,141.436 111.025,157.654 105.143 C 162.045 103.550,163.343 103.762,166.012 106.509 C 173.585 114.304,184.436 120.658,197.804 125.128 C 200.939 126.176,207.525 127.618,213.479 128.558 C 220.623 129.687,234.441 128.966,240.136 127.166 C 241.225 126.822,242.745 126.351,243.513 126.118 C 244.920 125.693,245.671 125.413,247.505 124.632 C 254.029 121.852,259.578 125.633,263.496 135.529 C 264.613 138.350,265.335 144.825,266.111 158.968 C 266.413 164.482,266.472 164.583,267.842 161.920 C 270.614 156.529,277.456 152.029,279.592 154.192 C 281.262 155.883,282.507 159.721,282.797 164.072 C 283.075 168.241,282.116 178.223,281.395 178.669 C 281.199 178.790,281.038 179.271,281.038 179.738 C 281.038 185.836,271.713 199.262,266.914 200.073 C 266.399 200.160,265.976 200.827,265.571 202.196 C 264.055 207.308,262.945 210.611,262.625 210.958 C 262.433 211.167,262.275 211.663,262.275 212.061 C 262.275 212.459,262.117 213.097,261.923 213.478 C 261.729 213.860,261.349 214.711,261.078 215.369 C 260.807 216.028,260.427 216.879,260.233 217.260 C 260.039 217.641,259.880 218.208,259.880 218.520 C 259.880 218.831,259.495 219.867,259.025 220.821 C 258.555 221.774,258.035 222.914,257.871 223.353 C 256.810 226.180,250.309 238.829,249.800 239.055 C 249.636 239.128,249.502 244.069,249.504 250.033 L 249.507 260.878 250.582 261.377 C 251.173 261.652,251.890 261.876,252.175 261.876 C 252.461 261.876,252.695 262.289,252.695 262.794 C 252.695 263.299,252.843 263.883,253.024 264.092 C 254.298 265.556,254.839 271.777,254.291 278.643 C 253.736 285.589,252.918 290.860,251.098 299.202 C 250.859 300.299,250.569 301.737,250.454 302.395 C 250.339 303.054,250.091 303.952,249.903 304.391 C 249.715 304.830,249.450 305.729,249.314 306.387 C 249.068 307.576,248.602 309.490,247.904 312.176 C 247.704 312.944,247.429 314.112,247.293 314.770 C 247.157 315.429,246.893 316.327,246.707 316.766 C 246.520 317.206,246.277 318.014,246.166 318.563 C 246.055 319.112,245.755 320.279,245.500 321.158 C 245.244 322.036,244.943 323.340,244.829 324.056 C 244.715 324.771,244.463 325.455,244.267 325.576 C 244.072 325.697,243.912 326.237,243.912 326.775 C 243.912 327.314,243.755 328.067,243.562 328.449 C 242.979 329.602,242.315 331.940,242.315 332.839 C 242.315 333.305,242.136 333.796,241.916 333.932 C 241.697 334.068,241.517 334.607,241.517 335.130 C 241.517 335.653,241.337 336.192,241.118 336.327 C 240.898 336.463,240.719 337.015,240.719 337.554 C 240.719 338.093,240.556 338.846,240.358 339.227 C 240.160 339.608,239.783 340.729,239.521 341.717 C 239.259 342.705,238.882 343.825,238.684 344.206 C 238.485 344.587,238.323 345.250,238.323 345.680 C 238.323 346.109,238.144 346.571,237.924 346.707 C 237.705 346.842,237.525 347.304,237.525 347.734 C 237.525 348.163,237.364 348.826,237.167 349.207 C 236.970 349.588,236.223 351.786,235.508 354.092 C 233.070 361.943,229.524 372.653,229.133 373.348 C 228.918 373.729,228.743 374.392,228.743 374.821 C 228.743 375.250,228.563 375.713,228.343 375.848 C 228.124 375.984,227.944 376.523,227.944 377.046 C 227.944 377.569,227.764 378.108,227.545 378.244 C 227.325 378.379,227.146 378.841,227.146 379.270 C 227.146 379.700,226.970 380.363,226.756 380.744 C 226.541 381.125,225.925 382.784,225.386 384.431 C 223.366 390.605,221.449 395.828,220.989 396.407 C 220.728 396.737,220.303 397.500,220.046 398.104 L 219.578 399.202 309.789 399.202 L 400.000 399.202 400.000 305.667 L 400.000 212.133 398.703 210.906 C 397.989 210.231,397.191 209.612,396.928 209.530 C 396.666 209.448,386.309 199.276,373.913 186.926 C 361.516 174.576,351.222 164.471,351.036 164.471 C 350.851 164.470,344.902 158.722,337.816 151.696 C 330.731 144.670,324.785 138.922,324.602 138.922 C 324.419 138.922,320.682 135.374,316.297 131.038 C 311.912 126.702,306.092 121.091,303.364 118.570 C 300.636 116.050,295.619 111.272,292.216 107.954 C 288.812 104.635,283.573 99.645,280.572 96.863 C 274.095 90.860,267.633 84.106,266.766 82.435 C 263.193 75.551,253.613 68.528,239.122 62.169 C 226.996 56.848,203.977 53.472,190.020 54.968 M139.023 265.791 C 137.213 267.041,132.390 270.489,128.307 273.453 C 124.223 276.417,120.180 279.337,119.323 279.943 C 117.908 280.942,117.764 281.207,117.764 282.828 C 117.764 284.803,116.984 285.612,114.480 286.232 C 113.762 286.410,111.737 286.954,109.980 287.441 C 108.224 287.929,106.158 288.466,105.389 288.635 C 104.621 288.803,103.004 289.159,101.796 289.425 C 97.577 290.353,92.911 291.304,91.018 291.621 C 90.250 291.749,88.902 292.016,88.024 292.214 C 87.146 292.412,84.271 292.956,81.637 293.422 C 79.002 293.889,76.295 294.437,75.620 294.641 C 74.946 294.844,74.012 295.010,73.544 295.010 C 62.596 295.010,50.964 310.096,41.873 336.085 C 41.212 337.975,40.327 340.509,39.906 341.717 C 37.404 348.893,32.723 366.319,29.934 378.842 C 28.766 384.090,25.958 398.095,25.952 398.703 C 25.949 399.100,41.182 399.202,100.798 399.202 C 141.966 399.202,175.649 399.118,175.649 399.017 C 175.649 398.915,175.274 397.882,174.816 396.721 C 174.358 395.561,173.363 392.725,172.605 390.419 C 171.847 388.114,171.062 385.868,170.861 385.429 C 170.659 384.990,169.584 381.846,168.471 378.443 C 167.358 375.040,166.272 371.944,166.058 371.562 C 165.844 371.181,165.669 370.518,165.669 370.089 C 165.669 369.660,165.489 369.198,165.269 369.062 C 165.050 368.926,164.870 368.387,164.870 367.864 C 164.870 367.341,164.691 366.802,164.471 366.667 C 164.251 366.531,164.072 366.069,164.072 365.640 C 164.072 365.211,163.911 364.547,163.715 364.166 C 163.364 363.484,159.478 351.557,157.701 345.709 C 157.201 344.062,156.653 342.355,156.485 341.916 C 156.317 341.477,155.958 340.309,155.689 339.321 C 155.419 338.333,155.060 337.166,154.890 336.727 C 154.721 336.287,154.361 335.120,154.091 334.132 C 153.821 333.144,153.462 331.886,153.293 331.337 C 153.125 330.788,152.765 329.531,152.495 328.543 C 152.225 327.555,151.865 326.297,151.697 325.749 C 151.528 325.200,151.165 323.942,150.891 322.954 C 149.862 319.254,149.589 318.339,149.250 317.446 C 149.059 316.942,148.902 316.099,148.902 315.574 C 148.902 315.048,148.742 314.519,148.547 314.399 C 148.352 314.278,148.095 313.594,147.977 312.878 C 147.859 312.162,147.559 310.768,147.310 309.780 C 147.061 308.792,146.766 307.445,146.655 306.786 C 146.544 306.128,146.297 305.230,146.108 304.790 C 145.918 304.351,145.669 303.453,145.554 302.794 C 145.439 302.136,145.149 300.699,144.910 299.601 C 142.186 287.116,141.134 278.228,141.532 271.058 C 141.671 268.533,141.963 266.253,142.179 265.992 C 142.396 265.731,142.515 265.068,142.444 264.518 C 142.317 263.534,142.265 263.553,139.023 265.791 " stroke="none" fill="#3c545d" fill-rule="evenodd"></path><path id="path3" d="M241.328 3.792 C 239.242 5.878,237.442 7.585,237.329 7.585 C 237.058 7.585,207.186 37.460,207.186 37.730 C 207.186 37.845,203.593 41.525,199.202 45.908 C 194.810 50.291,191.218 53.959,191.218 54.058 C 191.218 54.158,195.484 54.328,200.699 54.437 C 211.911 54.671,216.569 55.243,225.549 57.492 C 226.537 57.739,227.931 58.039,228.646 58.157 C 229.362 58.275,230.046 58.531,230.167 58.727 C 230.288 58.922,230.904 59.082,231.537 59.082 C 232.170 59.082,232.798 59.261,232.934 59.481 C 233.070 59.701,233.532 59.880,233.961 59.880 C 234.390 59.880,235.098 60.060,235.534 60.279 C 235.971 60.499,236.684 60.858,237.120 61.078 C 237.556 61.297,238.107 61.477,238.343 61.477 C 239.112 61.477,249.229 66.300,249.434 66.765 C 249.508 66.930,249.912 67.066,250.333 67.066 C 250.753 67.066,251.098 67.246,251.098 67.465 C 251.098 67.685,251.286 67.864,251.515 67.864 C 252.771 67.864,260.300 73.747,263.419 77.165 C 264.914 78.804,267.848 82.771,267.907 83.234 C 267.935 83.453,269.598 85.162,271.604 87.031 C 273.609 88.899,277.585 92.605,280.439 95.265 C 288.614 102.884,289.600 103.769,289.937 103.781 C 290.111 103.787,291.680 105.234,293.423 106.996 L 296.592 110.200 316.956 89.830 C 328.156 78.627,337.411 69.461,337.523 69.461 C 337.789 69.461,369.261 37.990,369.261 37.724 C 369.261 37.332,399.205 7.585,399.599 7.585 C 399.839 7.585,400.000 6.063,400.000 3.792 L 400.000 0.000 322.560 0.000 L 245.120 0.000 241.328 3.792 M187.226 54.691 C 187.226 55.148,187.795 55.148,189.222 54.691 C 190.112 54.405,190.059 54.367,188.723 54.331 C 187.899 54.309,187.226 54.471,187.226 54.691 M181.637 55.489 C 181.637 55.946,182.206 55.946,183.633 55.489 C 184.523 55.204,184.470 55.165,183.134 55.130 C 182.310 55.108,181.637 55.269,181.637 55.489 M178.443 56.287 C 178.443 56.788,178.867 56.788,179.641 56.287 C 180.125 55.975,180.068 55.899,179.341 55.894 C 178.847 55.891,178.443 56.068,178.443 56.287 M175.250 57.086 C 175.250 57.305,175.508 57.485,175.825 57.485 C 176.141 57.485,176.511 57.305,176.647 57.086 C 176.782 56.866,176.524 56.687,176.071 56.687 C 175.619 56.687,175.250 56.866,175.250 57.086 M170.459 58.683 C 170.459 59.183,170.883 59.183,171.657 58.683 C 172.141 58.370,172.084 58.294,171.357 58.290 C 170.863 58.286,170.459 58.463,170.459 58.683 M168.263 59.481 C 168.128 59.701,167.668 59.880,167.242 59.880 C 166.816 59.880,166.467 60.060,166.467 60.279 C 166.467 60.499,166.535 60.679,166.618 60.679 C 166.994 60.679,169.661 59.449,169.661 59.276 C 169.661 58.912,168.511 59.081,168.263 59.481 M163.273 61.779 C 163.273 61.945,162.735 62.319,162.076 62.611 C 161.417 62.902,160.878 63.293,160.878 63.478 C 160.878 63.664,161.687 63.364,162.675 62.812 C 164.590 61.742,164.827 61.477,163.872 61.477 C 163.543 61.477,163.273 61.613,163.273 61.779 M158.942 64.513 C 158.128 65.432,158.565 65.514,159.687 64.652 C 160.335 64.154,160.471 63.892,160.080 63.896 C 159.750 63.900,159.238 64.177,158.942 64.513 M156.547 66.109 C 155.733 67.029,156.169 67.111,157.291 66.249 C 157.940 65.751,158.076 65.489,157.685 65.493 C 157.355 65.497,156.843 65.774,156.547 66.109 M153.892 68.263 C 153.757 68.483,153.297 68.663,152.871 68.663 C 152.444 68.663,152.096 68.833,152.096 69.041 C 152.096 69.271,152.567 69.255,153.294 69.002 C 154.498 68.582,155.283 67.864,154.538 67.864 C 154.319 67.864,154.028 68.044,153.892 68.263 M143.214 71.962 C 141.063 73.159,141.364 73.523,143.578 72.402 C 145.712 71.322,146.073 71.043,145.276 71.093 C 144.965 71.113,144.037 71.503,143.214 71.962 M140.120 73.825 C 140.120 74.030,139.755 74.314,139.309 74.455 C 138.862 74.597,138.062 75.148,137.530 75.680 C 136.998 76.212,136.419 76.647,136.243 76.647 C 135.795 76.647,131.575 80.781,130.541 82.232 C 130.071 82.893,129.878 83.433,130.113 83.433 C 130.347 83.433,130.539 83.285,130.539 83.104 C 130.539 82.488,134.980 78.225,137.953 75.987 C 140.959 73.725,141.234 73.453,140.519 73.453 C 140.299 73.453,140.120 73.621,140.120 73.825 M127.841 85.747 C 124.941 89.932,124.540 90.648,122.768 94.810 C 122.394 95.689,121.924 96.719,121.723 97.100 C 121.522 97.482,121.357 98.234,121.357 98.773 C 121.357 99.312,121.197 99.852,121.002 99.973 C 120.807 100.093,120.545 100.778,120.420 101.493 C 120.295 102.209,119.980 103.782,119.720 104.990 C 119.460 106.198,119.177 111.373,119.091 116.491 L 118.934 125.797 113.359 131.351 C 110.293 134.406,107.784 137.001,107.784 137.116 C 107.784 137.385,37.993 207.186,37.724 207.186 C 37.457 207.186,7.585 237.063,7.585 237.329 C 7.585 237.442,5.878 239.242,3.792 241.328 L 0.000 245.120 0.000 322.161 L 0.000 399.202 4.192 399.202 C 6.759 399.202,8.383 399.045,8.383 398.797 C 8.383 398.574,13.054 393.726,18.762 388.024 C 24.471 382.322,29.142 377.384,29.142 377.052 C 29.142 376.719,29.321 376.447,29.541 376.447 C 29.760 376.447,29.940 375.549,29.940 374.451 C 29.940 373.353,30.100 372.455,30.296 372.455 C 30.645 372.455,30.958 371.120,31.396 367.764 C 31.518 366.831,31.779 366.068,31.976 366.068 C 32.174 366.068,32.335 365.349,32.335 364.471 C 32.335 363.593,32.495 362.874,32.691 362.874 C 32.886 362.874,33.136 362.290,33.245 361.577 C 33.593 359.305,37.561 346.313,37.950 346.174 C 38.155 346.101,38.323 345.515,38.323 344.871 C 38.323 344.228,38.531 343.300,38.785 342.809 C 39.776 340.892,39.920 340.503,39.920 339.750 C 39.920 339.320,40.100 338.858,40.319 338.723 C 40.539 338.587,40.719 338.037,40.719 337.501 C 40.719 336.965,40.898 336.527,41.118 336.527 C 41.337 336.527,41.517 336.088,41.517 335.553 C 41.517 335.017,41.697 334.467,41.916 334.331 C 42.136 334.196,42.315 333.734,42.315 333.304 C 42.315 332.875,42.474 332.212,42.668 331.831 C 42.862 331.450,43.242 330.599,43.513 329.940 C 43.784 329.281,44.164 328.431,44.358 328.049 C 44.552 327.668,44.711 327.084,44.711 326.752 C 44.711 326.420,44.890 326.148,45.110 326.148 C 45.329 326.148,45.509 325.807,45.509 325.390 C 45.509 324.973,46.048 323.607,46.707 322.355 C 47.365 321.103,47.904 319.827,47.904 319.520 C 47.904 319.213,48.084 318.962,48.303 318.962 C 48.523 318.962,48.703 318.618,48.703 318.197 C 48.703 317.776,48.837 317.372,49.002 317.299 C 49.257 317.186,50.789 314.421,52.449 311.081 C 52.694 310.589,53.029 310.184,53.194 310.183 C 53.358 310.181,53.493 309.910,53.493 309.581 C 53.493 309.251,53.673 308.982,53.892 308.982 C 54.112 308.982,54.291 308.713,54.291 308.383 C 54.291 308.054,54.471 307.784,54.691 307.784 C 54.910 307.784,55.090 307.592,55.090 307.357 C 55.090 307.121,55.314 306.693,55.589 306.406 C 55.863 306.118,56.717 305.108,57.485 304.163 C 62.008 298.596,65.675 295.967,70.259 295.003 C 71.467 294.749,73.105 294.377,73.899 294.177 C 74.693 293.976,75.895 293.812,76.570 293.812 C 77.245 293.812,77.908 293.633,78.044 293.413 C 78.180 293.194,79.052 293.014,79.984 293.014 C 80.915 293.014,81.847 292.851,82.056 292.652 C 82.264 292.452,83.333 292.190,84.431 292.068 C 88.372 291.632,90.026 291.330,90.399 290.977 C 90.608 290.780,91.540 290.619,92.471 290.619 C 93.403 290.619,94.275 290.439,94.411 290.220 C 94.547 290.000,95.445 289.820,96.407 289.820 C 97.369 289.820,98.267 289.641,98.403 289.421 C 98.539 289.202,99.347 289.022,100.200 289.022 C 101.052 289.022,101.860 288.842,101.996 288.623 C 102.132 288.403,102.850 288.224,103.593 288.224 C 104.335 288.224,105.054 288.044,105.190 287.824 C 105.325 287.605,106.144 287.425,107.010 287.425 C 107.875 287.425,108.583 287.246,108.583 287.026 C 108.583 286.806,109.122 286.627,109.780 286.627 C 110.439 286.627,110.978 286.447,110.978 286.228 C 110.978 286.008,111.686 285.828,112.551 285.828 C 113.417 285.828,114.236 285.649,114.371 285.429 C 114.507 285.210,115.012 285.029,115.493 285.027 C 116.604 285.023,117.365 283.451,117.365 281.158 C 117.365 279.778,117.505 279.441,118.076 279.441 C 118.466 279.441,119.045 279.082,119.361 278.643 C 119.678 278.204,120.256 277.844,120.647 277.844 C 121.038 277.844,121.357 277.665,121.357 277.445 C 121.357 277.226,121.637 277.046,121.980 277.046 C 122.322 277.046,122.491 276.866,122.355 276.647 C 122.220 276.427,122.387 276.248,122.726 276.248 C 123.274 276.248,123.943 275.813,125.494 274.451 C 125.744 274.232,126.442 273.797,127.046 273.485 C 127.650 273.174,128.144 272.770,128.144 272.587 C 128.144 272.405,128.341 272.255,128.582 272.255 C 128.824 272.255,129.524 271.717,130.140 271.058 C 130.755 270.399,131.474 269.860,131.737 269.860 C 131.999 269.860,132.718 269.321,133.333 268.663 C 133.949 268.004,134.700 267.465,135.002 267.465 C 135.305 267.465,135.811 267.106,136.128 266.667 C 136.444 266.228,137.073 265.868,137.525 265.868 C 137.977 265.868,138.606 265.509,138.922 265.070 C 139.239 264.631,139.778 264.271,140.120 264.271 C 140.462 264.271,141.001 263.912,141.317 263.473 C 141.634 263.034,142.292 262.675,142.779 262.675 C 143.267 262.675,143.762 262.518,143.880 262.327 C 143.998 262.136,144.665 261.865,145.362 261.726 L 146.629 261.473 146.342 254.589 C 145.619 237.255,145.400 233.280,145.126 232.535 C 144.845 231.769,142.020 225.695,141.276 224.257 C 141.079 223.876,140.918 223.292,140.918 222.960 C 140.918 222.627,140.739 222.355,140.519 222.355 C 140.299 222.355,140.120 222.007,140.120 221.580 C 140.120 221.154,139.940 220.695,139.721 220.559 C 139.501 220.423,139.321 219.874,139.321 219.338 C 139.321 218.802,139.142 218.363,138.922 218.363 C 138.703 218.363,138.523 218.015,138.523 217.588 C 138.523 217.162,138.343 216.703,138.124 216.567 C 137.904 216.431,137.725 215.969,137.725 215.540 C 137.725 215.111,137.566 214.448,137.372 214.066 C 136.475 212.304,135.241 208.762,134.140 204.790 C 133.866 203.802,133.499 202.635,133.324 202.196 C 133.149 201.756,132.906 201.083,132.783 200.699 C 132.658 200.307,132.159 199.996,131.649 199.990 C 123.305 199.899,112.875 172.805,116.285 160.080 C 117.174 156.761,119.974 152.479,120.771 153.218 C 120.934 153.369,120.942 152.685,120.787 151.697 C 119.778 145.241,118.975 111.003,119.749 107.402 C 121.726 98.205,123.510 93.173,126.221 89.150 C 126.839 88.232,127.345 87.304,127.345 87.087 C 127.345 86.870,127.487 86.633,127.659 86.560 C 128.150 86.352,129.834 83.830,129.468 83.851 C 129.289 83.861,128.556 84.715,127.841 85.747 M265.982 159.880 C 265.985 160.978,266.063 161.380,266.155 160.773 C 266.246 160.166,266.244 159.268,266.149 158.777 C 266.055 158.286,265.979 158.782,265.982 159.880 M282.336 166.667 C 282.341 167.545,282.422 167.857,282.518 167.361 C 282.613 166.864,282.610 166.145,282.510 165.764 C 282.410 165.382,282.332 165.788,282.336 166.667 M271.232 196.906 L 270.060 198.204 271.357 197.031 C 272.071 196.386,272.655 195.802,272.655 195.734 C 272.655 195.425,272.325 195.697,271.232 196.906 M249.248 257.285 C 249.249 259.481,249.316 260.328,249.397 259.168 C 249.477 258.008,249.477 256.212,249.395 255.176 C 249.313 254.141,249.247 255.090,249.248 257.285 M219.876 397.016 C 219.752 397.450,219.530 398.164,219.381 398.603 C 219.232 399.042,219.403 398.896,219.760 398.279 C 220.118 397.663,220.340 396.949,220.255 396.693 C 220.170 396.437,219.999 396.583,219.876 397.016 " stroke="none" fill="#42809d" fill-rule="evenodd"></path><path id="path4" d="M384.132 22.586 C 375.953 30.801,369.261 37.613,369.261 37.725 C 369.261 37.990,337.789 69.461,337.523 69.461 C 337.411 69.461,328.156 78.627,316.956 89.830 L 296.592 110.200 293.423 106.996 C 291.680 105.234,290.111 103.787,289.937 103.781 C 289.600 103.769,288.614 102.884,280.439 95.265 C 277.585 92.605,273.609 88.899,271.604 87.031 C 269.598 85.162,267.935 83.453,267.907 83.234 C 267.848 82.771,264.914 78.804,263.419 77.165 C 260.300 73.747,252.771 67.864,251.515 67.864 C 251.286 67.864,251.098 67.685,251.098 67.465 C 251.098 67.246,250.753 67.066,250.333 67.066 C 249.912 67.066,249.508 66.930,249.434 66.765 C 249.208 66.253,239.076 61.472,238.249 61.486 C 237.960 61.491,238.353 61.786,239.122 62.141 C 254.948 69.457,263.158 75.484,266.766 82.435 C 267.633 84.106,274.095 90.860,280.572 96.863 C 283.573 99.645,288.812 104.635,292.216 107.954 C 295.619 111.272,300.636 116.050,303.364 118.570 C 306.092 121.091,311.912 126.702,316.297 131.038 C 320.682 135.374,324.419 138.922,324.602 138.922 C 324.785 138.922,330.731 144.670,337.816 151.696 C 344.902 158.722,350.851 164.470,351.036 164.471 C 351.222 164.471,361.516 174.576,373.913 186.926 C 386.309 199.276,396.666 209.448,396.928 209.530 C 397.191 209.612,397.989 210.231,398.703 210.906 L 400.000 212.133 400.000 109.859 C 400.000 28.288,399.899 7.591,399.501 7.618 C 399.227 7.636,392.310 14.372,384.132 22.586 M189.222 54.638 C 188.673 54.799,191.996 54.858,196.607 54.769 C 202.708 54.652,206.500 54.784,210.537 55.257 C 215.501 55.838,218.051 55.872,215.516 55.323 C 212.265 54.620,191.164 54.070,189.222 54.638 M182.834 55.567 C 181.846 55.777,180.613 56.034,180.093 56.137 C 179.573 56.241,179.221 56.400,179.312 56.491 C 179.402 56.581,181.354 56.318,183.650 55.906 C 185.980 55.488,187.119 55.164,186.228 55.172 C 185.349 55.179,183.822 55.357,182.834 55.567 M216.800 56.037 C 216.891 56.118,217.864 56.305,218.962 56.452 C 220.380 56.642,220.785 56.601,220.359 56.310 C 219.821 55.942,216.399 55.679,216.800 56.037 M176.637 57.102 C 176.469 57.374,176.769 57.424,177.511 57.245 C 179.041 56.878,179.186 56.687,177.934 56.687 C 177.362 56.687,176.778 56.873,176.637 57.102 M221.191 56.833 C 221.282 56.914,222.076 57.100,222.954 57.247 C 224.098 57.439,224.381 57.399,223.952 57.107 C 223.414 56.740,220.790 56.480,221.191 56.833 M173.842 57.900 C 173.674 58.173,173.975 58.222,174.717 58.044 C 176.247 57.676,176.391 57.485,175.140 57.485 C 174.567 57.485,173.984 57.672,173.842 57.900 M225.549 57.884 C 227.088 58.377,227.908 58.377,227.146 57.884 C 226.816 57.671,226.098 57.512,225.549 57.531 L 224.551 57.565 225.549 57.884 M227.977 58.427 C 228.448 58.832,230.382 59.074,230.150 58.699 C 230.008 58.470,229.425 58.283,228.852 58.283 C 228.279 58.283,227.886 58.348,227.977 58.427 M233.916 60.290 C 235.774 60.924,237.371 61.364,237.466 61.269 C 237.561 61.174,237.299 60.989,236.883 60.858 C 236.468 60.728,235.816 60.454,235.435 60.250 C 235.053 60.047,234.390 59.880,233.961 59.880 C 233.532 59.880,233.070 59.701,232.934 59.481 C 232.798 59.261,232.204 59.094,231.613 59.109 C 230.929 59.127,231.764 59.555,233.916 60.290 M165.169 61.471 C 162.129 63.023,156.907 66.355,154.838 68.064 C 154.260 68.541,152.463 69.248,150.846 69.636 C 147.274 70.492,141.863 73.021,139.022 75.163 C 136.014 77.430,136.440 77.395,139.820 75.097 C 143.463 72.620,147.083 70.959,150.818 70.052 C 152.671 69.601,154.342 68.882,155.409 68.076 C 158.774 65.532,162.195 63.375,165.590 61.658 C 167.500 60.692,168.882 59.899,168.663 59.896 C 168.443 59.893,166.871 60.601,165.169 61.471 M134.331 78.964 C 132.090 81.102,130.309 83.034,130.579 83.034 C 130.678 83.034,132.097 81.687,133.733 80.040 C 137.042 76.709,137.433 76.005,134.331 78.964 M129.038 84.835 C 127.876 86.630,128.144 86.627,129.514 84.830 C 130.100 84.062,130.436 83.435,130.260 83.438 C 130.084 83.441,129.534 84.070,129.038 84.835 M126.401 88.797 C 125.120 90.752,124.117 92.713,124.304 92.900 C 124.409 93.005,124.893 92.310,125.379 91.356 C 125.865 90.402,126.527 89.217,126.850 88.723 C 127.173 88.229,127.347 87.824,127.238 87.824 C 127.128 87.824,126.751 88.262,126.401 88.797 M120.359 104.192 C 120.208 104.882,120.167 105.530,120.269 105.631 C 120.370 105.733,120.568 105.242,120.709 104.541 C 121.041 102.877,120.719 102.554,120.359 104.192 M119.636 107.795 C 119.491 108.338,119.392 109.591,119.415 110.579 C 119.457 112.326,119.468 112.310,119.808 109.980 C 120.179 107.437,120.078 106.144,119.636 107.795 M119.411 128.177 C 119.438 130.684,119.593 133.992,119.755 135.529 C 119.922 137.114,119.963 135.214,119.850 131.138 C 119.740 127.186,119.586 123.877,119.506 123.786 C 119.426 123.694,119.384 125.670,119.411 128.177 M220.065 129.229 C 220.672 129.320,221.570 129.318,222.061 129.223 C 222.552 129.128,222.056 129.053,220.958 129.056 C 219.860 129.059,219.459 129.137,220.065 129.229 M226.647 129.224 C 227.141 129.319,227.949 129.319,228.443 129.224 C 228.937 129.129,228.533 129.051,227.545 129.051 C 226.557 129.051,226.153 129.129,226.647 129.224 M120.183 144.943 C 120.195 146.572,120.355 148.623,120.537 149.501 C 120.749 150.523,120.793 149.517,120.658 146.707 C 120.414 141.620,120.149 140.636,120.183 144.943 M277.735 153.981 C 279.420 154.190,280.508 155.753,281.840 159.872 C 282.496 161.900,282.494 172.047,281.837 174.937 C 279.063 187.154,274.050 196.243,268.584 198.967 C 267.443 199.535,266.787 200.000,267.126 200.000 C 271.186 200.000,281.038 185.651,281.038 179.738 C 281.038 179.271,281.199 178.790,281.395 178.669 C 281.802 178.417,282.073 176.729,282.615 171.058 C 283.561 161.161,281.439 153.580,277.773 153.757 L 276.447 153.820 277.735 153.981 M130.659 160.479 C 130.659 161.687,130.733 162.181,130.825 161.577 C 130.916 160.973,130.916 159.985,130.825 159.381 C 130.733 158.777,130.659 159.271,130.659 160.479 M265.469 200.804 C 265.469 201.246,265.307 201.920,265.109 202.301 C 264.911 202.682,264.527 203.802,264.256 204.790 C 263.379 207.994,262.917 209.374,262.593 209.760 C 262.151 210.289,262.181 211.439,262.625 210.958 C 262.930 210.628,264.615 205.675,265.200 203.393 C 265.312 202.954,265.586 202.011,265.808 201.297 C 266.050 200.521,266.063 200.000,265.840 200.000 C 265.636 200.000,265.469 200.362,265.469 200.804 M261.765 212.108 C 261.320 213.239,261.392 213.817,261.914 213.296 C 262.154 213.056,262.283 212.526,262.201 212.118 C 262.058 211.404,262.042 211.403,261.765 212.108 M259.369 218.496 C 258.925 219.627,258.997 220.204,259.518 219.683 C 259.759 219.443,259.888 218.913,259.806 218.505 C 259.662 217.791,259.647 217.790,259.369 218.496 M256.505 225.367 C 255.689 227.320,256.013 227.644,256.904 225.767 C 257.281 224.973,257.487 224.220,257.361 224.094 C 257.235 223.969,256.850 224.542,256.505 225.367 M250.920 236.549 C 250.544 237.124,250.315 237.674,250.413 237.772 C 250.511 237.869,250.899 237.479,251.275 236.904 C 251.652 236.329,251.880 235.779,251.783 235.681 C 251.685 235.584,251.297 235.974,250.920 236.549 M249.701 261.477 C 249.836 261.697,250.217 261.876,250.546 261.876 C 250.875 261.876,251.034 261.697,250.898 261.477 C 250.763 261.257,250.382 261.078,250.053 261.078 C 249.723 261.078,249.565 261.257,249.701 261.477 M141.317 263.473 C 141.001 263.912,140.462 264.271,140.120 264.271 C 139.778 264.271,139.239 264.631,138.922 265.070 C 138.606 265.509,137.977 265.868,137.525 265.868 C 137.073 265.868,136.444 266.228,136.128 266.667 C 135.811 267.106,135.305 267.465,135.002 267.465 C 134.700 267.465,133.949 268.004,133.333 268.663 C 132.718 269.321,131.999 269.860,131.737 269.860 C 131.474 269.860,130.755 270.399,130.140 271.058 C 129.524 271.717,128.824 272.255,128.582 272.255 C 128.341 272.255,128.144 272.405,128.144 272.587 C 128.144 272.770,127.652 273.174,127.051 273.485 C 125.968 274.047,124.947 274.789,123.936 275.749 C 123.647 276.023,123.117 276.248,122.759 276.248 C 122.401 276.248,122.220 276.427,122.355 276.647 C 122.491 276.866,122.322 277.046,121.980 277.046 C 121.637 277.046,121.357 277.226,121.357 277.445 C 121.357 277.665,121.038 277.844,120.647 277.844 C 120.256 277.844,119.678 278.204,119.361 278.643 C 119.045 279.082,118.466 279.441,118.076 279.441 C 117.505 279.441,117.365 279.778,117.365 281.158 C 117.365 283.451,116.604 285.023,115.493 285.027 C 115.012 285.029,114.507 285.210,114.371 285.429 C 114.236 285.649,113.417 285.828,112.551 285.828 C 111.686 285.828,110.978 286.008,110.978 286.228 C 110.978 286.447,110.439 286.627,109.780 286.627 C 109.122 286.627,108.583 286.806,108.583 287.026 C 108.583 287.246,107.875 287.425,107.010 287.425 C 106.144 287.425,105.325 287.605,105.190 287.824 C 105.054 288.044,104.335 288.224,103.593 288.224 C 102.850 288.224,102.132 288.403,101.996 288.623 C 101.860 288.842,101.052 289.022,100.200 289.022 C 99.347 289.022,98.539 289.202,98.403 289.421 C 98.267 289.641,97.369 289.820,96.407 289.820 C 95.445 289.820,94.547 290.000,94.411 290.220 C 94.275 290.439,93.403 290.619,92.471 290.619 C 91.540 290.619,90.608 290.780,90.399 290.977 C 90.026 291.330,88.372 291.632,84.431 292.068 C 83.333 292.190,82.264 292.452,82.056 292.652 C 81.847 292.851,80.915 293.014,79.984 293.014 C 79.052 293.014,78.180 293.194,78.044 293.413 C 77.908 293.633,77.245 293.812,76.570 293.812 C 75.895 293.812,74.693 293.976,73.899 294.177 C 73.105 294.377,71.467 294.749,70.259 295.003 C 65.675 295.967,62.008 298.596,57.485 304.163 C 56.717 305.108,55.863 306.118,55.589 306.406 C 55.314 306.693,55.090 307.121,55.090 307.357 C 55.090 307.592,54.910 307.784,54.691 307.784 C 54.471 307.784,54.291 308.054,54.291 308.383 C 54.291 308.713,54.112 308.982,53.892 308.982 C 53.673 308.982,53.493 309.251,53.493 309.581 C 53.493 309.910,53.358 310.181,53.194 310.183 C 53.029 310.184,52.694 310.589,52.449 311.081 C 50.789 314.421,49.257 317.186,49.002 317.299 C 48.837 317.372,48.703 317.776,48.703 318.197 C 48.703 318.618,48.523 318.962,48.303 318.962 C 48.084 318.962,47.904 319.213,47.904 319.520 C 47.904 319.827,47.365 321.103,46.707 322.355 C 46.048 323.607,45.509 324.973,45.509 325.390 C 45.509 325.807,45.329 326.148,45.110 326.148 C 44.890 326.148,44.711 326.420,44.711 326.752 C 44.711 327.084,44.552 327.668,44.358 328.049 C 44.164 328.431,43.784 329.281,43.513 329.940 C 43.242 330.599,42.862 331.450,42.668 331.831 C 42.474 332.212,42.315 332.875,42.315 333.304 C 42.315 333.734,42.136 334.196,41.916 334.331 C 41.697 334.467,41.517 335.017,41.517 335.553 C 41.517 336.088,41.337 336.527,41.118 336.527 C 40.898 336.527,40.719 336.965,40.719 337.501 C 40.719 338.037,40.539 338.587,40.319 338.723 C 40.100 338.858,39.920 339.320,39.920 339.750 C 39.920 340.503,39.776 340.892,38.785 342.809 C 38.531 343.300,38.323 344.228,38.323 344.871 C 38.323 345.515,38.155 346.101,37.950 346.174 C 37.561 346.313,33.593 359.305,33.245 361.577 C 33.136 362.290,32.886 362.874,32.691 362.874 C 32.495 362.874,32.335 363.593,32.335 364.471 C 32.335 365.349,32.174 366.068,31.976 366.068 C 31.779 366.068,31.518 366.831,31.396 367.764 C 30.958 371.120,30.645 372.455,30.296 372.455 C 30.100 372.455,29.940 373.353,29.940 374.451 C 29.940 375.549,29.760 376.447,29.541 376.447 C 29.321 376.447,29.142 376.719,29.142 377.052 C 29.142 377.384,24.471 382.322,18.762 388.024 C 13.054 393.726,8.383 398.574,8.383 398.797 C 8.383 399.058,11.470 399.202,17.086 399.202 L 25.790 399.202 27.307 391.517 C 30.881 373.416,36.242 352.227,39.906 341.717 C 40.327 340.509,41.212 337.975,41.873 336.085 C 50.964 310.096,62.596 295.010,73.544 295.010 C 74.012 295.010,74.946 294.844,75.620 294.641 C 76.295 294.437,79.002 293.889,81.637 293.422 C 84.271 292.956,87.146 292.412,88.024 292.214 C 88.902 292.016,90.250 291.749,91.018 291.621 C 92.911 291.304,97.577 290.353,101.796 289.425 C 103.004 289.159,104.621 288.803,105.389 288.635 C 106.158 288.466,108.224 287.929,109.980 287.441 C 111.737 286.954,113.762 286.410,114.480 286.232 C 116.984 285.612,117.764 284.803,117.764 282.828 C 117.764 281.207,117.908 280.942,119.323 279.943 C 120.180 279.337,124.223 276.417,128.307 273.453 C 139.929 265.017,142.266 263.472,142.604 264.002 C 142.768 264.260,142.918 264.381,142.939 264.271 C 142.959 264.162,143.035 263.757,143.109 263.373 C 143.295 262.401,142.040 262.470,141.317 263.473 M141.461 274.251 C 141.461 276.337,141.529 277.191,141.611 276.148 C 141.693 275.105,141.693 273.398,141.611 272.355 C 141.529 271.312,141.461 272.166,141.461 274.251 M254.419 273.453 C 254.419 274.880,254.492 275.464,254.580 274.750 C 254.669 274.037,254.669 272.869,254.580 272.156 C 254.492 271.442,254.419 272.026,254.419 273.453 " stroke="none" fill="#39748a" fill-rule="evenodd"></path></g></svg>